<mxfile host="app.diagrams.net" modified="2023-05-09T11:36:05.576Z" agent="Mozilla/5.0 (Windows NT 10.0; Win64; x64) AppleWebKit/537.36 (KHTML, like Gecko) Chrome/110.0.0.0 YaBrowser/23.3.3.721 Yowser/2.5 Safari/537.36" etag="JFxbfO0ItmPuYWWtK5jm" version="21.2.9" type="device">
  <diagram name="Страница 1" id="w--V2Sr9RqZX7BvfYCj9">
    <mxGraphModel dx="1370" dy="746" grid="1" gridSize="10" guides="1" tooltips="1" connect="1" arrows="1" fold="1" page="1" pageScale="1" pageWidth="827" pageHeight="1169" math="0" shadow="0">
      <root>
        <mxCell id="0" />
        <mxCell id="1" parent="0" />
        <mxCell id="X_FC07pFoUFaXGP9iKlr-8" style="edgeStyle=orthogonalEdgeStyle;rounded=0;orthogonalLoop=1;jettySize=auto;html=1;exitX=0.5;exitY=1;exitDx=0;exitDy=0;" edge="1" parent="1" source="X_FC07pFoUFaXGP9iKlr-1" target="X_FC07pFoUFaXGP9iKlr-2">
          <mxGeometry relative="1" as="geometry" />
        </mxCell>
        <mxCell id="X_FC07pFoUFaXGP9iKlr-1" value="Начало" style="ellipse;whiteSpace=wrap;html=1;" vertex="1" parent="1">
          <mxGeometry x="354" y="10" width="120" height="80" as="geometry" />
        </mxCell>
        <mxCell id="X_FC07pFoUFaXGP9iKlr-9" style="edgeStyle=orthogonalEdgeStyle;rounded=0;orthogonalLoop=1;jettySize=auto;html=1;exitX=0.5;exitY=1;exitDx=0;exitDy=0;" edge="1" parent="1" source="X_FC07pFoUFaXGP9iKlr-2" target="X_FC07pFoUFaXGP9iKlr-3">
          <mxGeometry relative="1" as="geometry" />
        </mxCell>
        <mxCell id="X_FC07pFoUFaXGP9iKlr-2" value="SecondArrayWithIf" style="rounded=1;whiteSpace=wrap;html=1;" vertex="1" parent="1">
          <mxGeometry x="354" y="130" width="120" height="60" as="geometry" />
        </mxCell>
        <mxCell id="X_FC07pFoUFaXGP9iKlr-7" style="edgeStyle=orthogonalEdgeStyle;rounded=0;orthogonalLoop=1;jettySize=auto;html=1;exitX=0.5;exitY=1;exitDx=0;exitDy=0;entryX=0.5;entryY=0;entryDx=0;entryDy=0;" edge="1" parent="1" source="X_FC07pFoUFaXGP9iKlr-3" target="X_FC07pFoUFaXGP9iKlr-4">
          <mxGeometry relative="1" as="geometry" />
        </mxCell>
        <mxCell id="X_FC07pFoUFaXGP9iKlr-3" value="string[] array1&lt;br&gt;string array2&lt;br&gt;int count = 0" style="shape=parallelogram;perimeter=parallelogramPerimeter;whiteSpace=wrap;html=1;fixedSize=1;" vertex="1" parent="1">
          <mxGeometry x="354" y="230" width="120" height="60" as="geometry" />
        </mxCell>
        <mxCell id="X_FC07pFoUFaXGP9iKlr-6" style="edgeStyle=orthogonalEdgeStyle;rounded=0;orthogonalLoop=1;jettySize=auto;html=1;exitX=0.5;exitY=1;exitDx=0;exitDy=0;" edge="1" parent="1" source="X_FC07pFoUFaXGP9iKlr-4" target="X_FC07pFoUFaXGP9iKlr-5">
          <mxGeometry relative="1" as="geometry">
            <Array as="points">
              <mxPoint x="415" y="420" />
            </Array>
          </mxGeometry>
        </mxCell>
        <mxCell id="X_FC07pFoUFaXGP9iKlr-4" value="for (int i = 0;&lt;br&gt;i &amp;lt; array1.length;&lt;br&gt;i++)" style="shape=hexagon;perimeter=hexagonPerimeter2;whiteSpace=wrap;html=1;fixedSize=1;" vertex="1" parent="1">
          <mxGeometry x="354" y="340" width="120" height="80" as="geometry" />
        </mxCell>
        <mxCell id="X_FC07pFoUFaXGP9iKlr-12" style="edgeStyle=orthogonalEdgeStyle;rounded=0;orthogonalLoop=1;jettySize=auto;html=1;exitX=0;exitY=0.5;exitDx=0;exitDy=0;" edge="1" parent="1" source="X_FC07pFoUFaXGP9iKlr-5" target="X_FC07pFoUFaXGP9iKlr-10">
          <mxGeometry relative="1" as="geometry" />
        </mxCell>
        <mxCell id="X_FC07pFoUFaXGP9iKlr-13" style="edgeStyle=orthogonalEdgeStyle;rounded=0;orthogonalLoop=1;jettySize=auto;html=1;entryX=0;entryY=0.75;entryDx=0;entryDy=0;" edge="1" parent="1" source="X_FC07pFoUFaXGP9iKlr-5" target="X_FC07pFoUFaXGP9iKlr-4">
          <mxGeometry relative="1" as="geometry">
            <Array as="points">
              <mxPoint x="290" y="510" />
              <mxPoint x="290" y="397" />
            </Array>
          </mxGeometry>
        </mxCell>
        <mxCell id="X_FC07pFoUFaXGP9iKlr-5" value="if (array1[i].length &amp;lt;= 3)" style="rhombus;whiteSpace=wrap;html=1;" vertex="1" parent="1">
          <mxGeometry x="289" y="505" width="250" height="80" as="geometry" />
        </mxCell>
        <mxCell id="X_FC07pFoUFaXGP9iKlr-11" style="edgeStyle=orthogonalEdgeStyle;rounded=0;orthogonalLoop=1;jettySize=auto;html=1;exitX=1;exitY=0.5;exitDx=0;exitDy=0;" edge="1" parent="1" source="X_FC07pFoUFaXGP9iKlr-10" target="X_FC07pFoUFaXGP9iKlr-4">
          <mxGeometry relative="1" as="geometry" />
        </mxCell>
        <mxCell id="X_FC07pFoUFaXGP9iKlr-10" value="array2[count] = array1[i];&lt;br&gt;count++;" style="rounded=0;whiteSpace=wrap;html=1;" vertex="1" parent="1">
          <mxGeometry x="70" y="350" width="150" height="60" as="geometry" />
        </mxCell>
        <mxCell id="X_FC07pFoUFaXGP9iKlr-14" value="No" style="text;html=1;strokeColor=none;fillColor=none;align=center;verticalAlign=middle;whiteSpace=wrap;rounded=0;" vertex="1" parent="1">
          <mxGeometry x="294" y="470" width="60" height="30" as="geometry" />
        </mxCell>
        <mxCell id="X_FC07pFoUFaXGP9iKlr-15" value="Yes" style="text;html=1;strokeColor=none;fillColor=none;align=center;verticalAlign=middle;whiteSpace=wrap;rounded=0;" vertex="1" parent="1">
          <mxGeometry x="190" y="500" width="60" height="30" as="geometry" />
        </mxCell>
      </root>
    </mxGraphModel>
  </diagram>
</mxfile>
